<svg width="75" height="75" viewBox="0 0 75 75" fill="none" xmlns="http://www.w3.org/2000/svg">
	<rect x="1.5" y="1.5" width="72" height="72" rx="15.2476" stroke="black" stroke-width="3"/>
	<path fill-rule="evenodd" clip-rule="evenodd" d="M26.9597 50.9504C27.8186 51.3887 28.8073 51.6079 29.9259 51.6079H31.9933V48.1409H30.4653C29.7661 48.1409 29.2068 47.9615 28.7874 47.6029C28.3879 47.2243 28.1981 46.7062 28.2181 46.0487L28.5177 41.3861C28.5976 40.3699 28.3479 39.523 27.7686 38.8456C27.1894 38.1482 26.3704 37.7098 25.3117 37.5305C26.3704 37.3312 27.1894 36.9028 27.7686 36.2453C28.3479 35.5678 28.5976 34.721 28.5177 33.7047L28.2181 29.0422C28.1781 28.3049 28.3579 27.7669 28.7574 27.4282C29.1769 27.0894 29.7462 26.9201 30.4653 26.9201H31.9933V23.4829H29.9259C28.2281 23.4829 26.8698 23.9512 25.8511 24.8877C24.8323 25.8042 24.3729 27.0695 24.4728 28.6835L24.7724 33.376C24.8323 34.173 24.6626 34.7807 24.2631 35.1992C23.8636 35.6176 23.2144 35.8268 22.3155 35.8268H18.75V39.264H22.3155C24.0733 39.264 24.8923 40.0909 24.7724 41.7447L24.4728 46.2878C24.4129 47.3837 24.6026 48.3202 25.0421 49.0973C25.4815 49.8943 26.1207 50.512 26.9597 50.9504ZM48.0403 50.9504C47.1814 51.3887 46.1927 51.6079 45.0741 51.6079H43.0067V48.1409H44.5347C45.2339 48.1409 45.7932 47.9615 46.2126 47.6029C46.6121 47.2243 46.8019 46.7062 46.7819 46.0487L46.4823 41.3861C46.4024 40.3699 46.6521 39.523 47.2314 38.8456C47.8106 38.1482 48.6296 37.7098 49.6883 37.5305C48.6296 37.3312 47.8106 36.9028 47.2314 36.2453C46.6521 35.5678 46.4024 34.721 46.4823 33.7047L46.7819 29.0422C46.8219 28.3049 46.6421 27.7669 46.2426 27.4282C45.8231 27.0894 45.2538 26.9201 44.5347 26.9201H43.0067V23.4829H45.0741C46.7719 23.4829 48.1302 23.9512 49.1489 24.8877C50.1677 25.8042 50.6271 27.0695 50.5272 28.6835L50.2276 33.376C50.1677 34.173 50.3374 34.7807 50.7369 35.1992C51.1364 35.6176 51.7856 35.8268 52.6845 35.8268H56.25V39.264H52.6845C50.9267 39.264 50.1077 40.0909 50.2276 41.7447L50.5272 46.2878C50.5871 47.3837 50.3974 48.3202 49.9579 49.0973C49.5185 49.8943 48.8793 50.512 48.0403 50.9504Z" fill="black"/>
</svg>
