<svg width="75" height="75" viewBox="0 0 75 75" fill="none" xmlns="http://www.w3.org/2000/svg">
	<rect width="75" height="75" rx="16.7476" fill="url(#paint0_linear)"/>
	<path d="M0 47.5388V48.5388C0 57.6025 0 62.1343 1.70779 65.6203C3.34293 68.9581 6.04192 71.657 9.37966 73.2922C12.8657 75 17.3975 75 26.4612 75H48.5388C57.6025 75 62.1343 75 65.6203 73.2922C68.9581 71.657 71.6571 68.9581 73.2922 65.6203C75 62.1343 75 57.6025 75 48.5388V47.5388C75 56.6025 75 61.1343 73.2922 64.6203C71.6571 67.9581 68.9581 70.657 65.6203 72.2922C62.1343 74 57.6025 74 48.5388 74H26.4612C17.3975 74 12.8657 74 9.37966 72.2922C6.04192 70.657 3.34293 67.9581 1.70779 64.6203C0 61.1343 0 56.6025 0 47.5388Z" fill="#AFB2B6"/>
	<path fill-rule="evenodd" clip-rule="evenodd" d="M26.9597 51.9504C27.8186 52.3887 28.8073 52.6079 29.9259 52.6079H31.9933V49.1409H30.4653C29.7661 49.1409 29.2068 48.9615 28.7874 48.6029C28.3879 48.2243 28.1981 47.7062 28.2181 47.0487L28.5177 42.3861C28.5976 41.3699 28.3479 40.523 27.7686 39.8456C27.1894 39.1482 26.3704 38.7098 25.3117 38.5305C26.3704 38.3312 27.1894 37.9028 27.7686 37.2453C28.3479 36.5678 28.5976 35.721 28.5177 34.7047L28.2181 30.0422C28.1781 29.3049 28.3579 28.7669 28.7574 28.4282C29.1769 28.0894 29.7462 27.9201 30.4653 27.9201H31.9933V24.4829H29.9259C28.2281 24.4829 26.8698 24.9512 25.8511 25.8877C24.8323 26.8042 24.3729 28.0695 24.4728 29.6835L24.7724 34.376C24.8323 35.173 24.6626 35.7807 24.2631 36.1992C23.8636 36.6176 23.2144 36.8268 22.3155 36.8268H18.75V40.264H22.3155C24.0733 40.264 24.8923 41.0909 24.7724 42.7447L24.4728 47.2878C24.4129 48.3837 24.6026 49.3202 25.0421 50.0973C25.4815 50.8943 26.1207 51.512 26.9597 51.9504ZM48.0403 51.9504C47.1814 52.3887 46.1927 52.6079 45.0741 52.6079H43.0067V49.1409H44.5347C45.2339 49.1409 45.7932 48.9615 46.2126 48.6029C46.6121 48.2243 46.8019 47.7062 46.7819 47.0487L46.4823 42.3861C46.4024 41.3699 46.6521 40.523 47.2314 39.8456C47.8106 39.1482 48.6296 38.7098 49.6883 38.5305C48.6296 38.3312 47.8106 37.9028 47.2314 37.2453C46.6521 36.5678 46.4024 35.721 46.4823 34.7047L46.7819 30.0422C46.8219 29.3049 46.6421 28.7669 46.2426 28.4282C45.8231 28.0894 45.2538 27.9201 44.5347 27.9201H43.0067V24.4829H45.0741C46.7719 24.4829 48.1302 24.9512 49.1489 25.8877C50.1677 26.8042 50.6271 28.0695 50.5272 29.6835L50.2276 34.376C50.1677 35.173 50.3374 35.7807 50.7369 36.1992C51.1364 36.6176 51.7856 36.8268 52.6845 36.8268H56.25V40.264H52.6845C50.9267 40.264 50.1077 41.0909 50.2276 42.7447L50.5272 47.2878C50.5871 48.3837 50.3974 49.3202 49.9579 50.0973C49.5185 50.8943 48.8793 51.512 48.0403 51.9504Z" fill="white"/>
	<path fill-rule="evenodd" clip-rule="evenodd" d="M26.9597 50.9504C27.8186 51.3887 28.8073 51.6079 29.9259 51.6079H31.9933V48.1409H30.4653C29.7661 48.1409 29.2068 47.9615 28.7874 47.6029C28.3879 47.2243 28.1981 46.7062 28.2181 46.0487L28.5177 41.3861C28.5976 40.3699 28.3479 39.523 27.7686 38.8456C27.1894 38.1482 26.3704 37.7098 25.3117 37.5305C26.3704 37.3312 27.1894 36.9028 27.7686 36.2453C28.3479 35.5678 28.5976 34.721 28.5177 33.7047L28.2181 29.0422C28.1781 28.3049 28.3579 27.7669 28.7574 27.4282C29.1769 27.0894 29.7462 26.9201 30.4653 26.9201H31.9933V23.4829H29.9259C28.2281 23.4829 26.8698 23.9512 25.8511 24.8877C24.8323 25.8042 24.3729 27.0695 24.4728 28.6835L24.7724 33.376C24.8323 34.173 24.6626 34.7807 24.2631 35.1992C23.8636 35.6176 23.2144 35.8268 22.3155 35.8268H18.75V39.264H22.3155C24.0733 39.264 24.8923 40.0909 24.7724 41.7447L24.4728 46.2878C24.4129 47.3837 24.6026 48.3202 25.0421 49.0973C25.4815 49.8943 26.1207 50.512 26.9597 50.9504ZM48.0403 50.9504C47.1814 51.3887 46.1927 51.6079 45.0741 51.6079H43.0067V48.1409H44.5347C45.2339 48.1409 45.7932 47.9615 46.2126 47.6029C46.6121 47.2243 46.8019 46.7062 46.7819 46.0487L46.4823 41.3861C46.4024 40.3699 46.6521 39.523 47.2314 38.8456C47.8106 38.1482 48.6296 37.7098 49.6883 37.5305C48.6296 37.3312 47.8106 36.9028 47.2314 36.2453C46.6521 35.5678 46.4024 34.721 46.4823 33.7047L46.7819 29.0422C46.8219 28.3049 46.6421 27.7669 46.2426 27.4282C45.8231 27.0894 45.2538 26.9201 44.5347 26.9201H43.0067V23.4829H45.0741C46.7719 23.4829 48.1302 23.9512 49.1489 24.8877C50.1677 25.8042 50.6271 27.0695 50.5272 28.6835L50.2276 33.376C50.1677 34.173 50.3374 34.7807 50.7369 35.1992C51.1364 35.6176 51.7856 35.8268 52.6845 35.8268H56.25V39.264H52.6845C50.9267 39.264 50.1077 40.0909 50.2276 41.7447L50.5272 46.2878C50.5871 47.3837 50.3974 48.3202 49.9579 49.0973C49.5185 49.8943 48.8793 50.512 48.0403 50.9504Z" fill="url(#paint1_linear)"/>
	<defs>
		<linearGradient id="paint0_linear" x1="37.5" y1="0" x2="37.5" y2="75" gradientUnits="userSpaceOnUse">
			<stop stop-color="#F1F3F6"/>
			<stop offset="1" stop-color="#D5D8DB"/>
		</linearGradient>
		<linearGradient id="paint1_linear" x1="37.5" y1="23.4829" x2="37.5" y2="51.6079" gradientUnits="userSpaceOnUse">
			<stop stop-color="#313234"/>
			<stop offset="1" stop-color="#424345"/>
		</linearGradient>
	</defs>
</svg>
