<svg width="64" height="64" viewBox="0 0 64 64" fill="none" xmlns="http://www.w3.org/2000/svg">
	<rect width="64" height="64" rx="14.2913" fill="#B5B6B7"/>
	<path fill-rule="evenodd" clip-rule="evenodd" d="M1.45731 8.00398C0 10.9787 0 14.8459 0 22.5802V40.5665C0 48.3008 0 52.1679 1.45731 55.1427C2.85264 57.9909 5.15577 60.294 8.00398 61.6893C10.9787 63.1467 14.8459 63.1467 22.5802 63.1467H41.4198C49.1541 63.1467 53.0213 63.1467 55.996 61.6893C58.8442 60.294 61.1474 57.9909 62.5427 55.1427C64 52.1679 64 48.3008 64 40.5665V22.5802C64 14.8459 64 10.9787 62.5427 8.00398C61.1474 5.15577 58.8442 2.85264 55.996 1.45731C53.0213 0 49.1541 0 41.4198 0H22.5802C14.8459 0 10.9787 0 8.00398 1.45731C5.15577 2.85264 2.85264 5.15577 1.45731 8.00398Z" fill="url(#paint0_linear)"/>
	<path fill-rule="evenodd" clip-rule="evenodd" d="M40.9944 44.331C40.2615 44.7051 39.4177 44.8921 38.4632 44.8921H36.699V41.9335H38.003C38.5996 41.9335 39.0768 41.7805 39.4348 41.4744C39.7757 41.1514 39.9376 40.7093 39.9206 40.1482L39.6649 36.1695C39.5967 35.3023 39.8098 34.5797 40.3041 34.0015C40.7984 33.4064 41.4973 33.0324 42.4007 32.8793C41.4973 32.7093 40.7984 32.3437 40.3041 31.7826C39.8098 31.2045 39.5967 30.4819 39.6649 29.6147L39.9206 25.636C39.9547 25.0069 39.8013 24.5478 39.4604 24.2587C39.1024 23.9697 38.6166 23.8251 38.003 23.8251H36.699V20.8921H38.4632C39.9121 20.8921 41.0711 21.2917 41.9404 22.0908C42.8097 22.873 43.2018 23.9527 43.1165 25.3299L42.8609 29.3342C42.8097 30.0143 42.9546 30.5329 43.2955 30.89C43.6364 31.247 44.1904 31.4256 44.9574 31.4256H48V34.3586H44.9574C43.4575 34.3586 42.7586 35.0642 42.8609 36.4755L43.1165 40.3522C43.1677 41.2874 43.0058 42.0866 42.6308 42.7497C42.2558 43.4298 41.7103 43.9569 40.9944 44.331ZM23.0056 44.331C23.7385 44.7051 24.5823 44.8921 25.5368 44.8921H27.301V41.9335H25.997C25.4004 41.9335 24.9232 41.7805 24.5652 41.4745C24.2243 41.1514 24.0624 40.7093 24.0794 40.1482L24.3351 36.1695C24.4033 35.3023 24.1902 34.5797 23.6959 34.0016C23.2016 33.4064 22.5027 33.0324 21.5993 32.8793C22.5027 32.7093 23.2016 32.3437 23.6959 31.7826C24.1902 31.2045 24.4033 30.4819 24.3351 29.6147L24.0794 25.636C24.0453 25.0069 24.1987 24.5478 24.5396 24.2587C24.8976 23.9697 25.3834 23.8252 25.997 23.8252H27.301V20.8921H25.5368C24.0879 20.8921 22.9289 21.2917 22.0596 22.0908C21.1903 22.873 20.7982 23.9527 20.8835 25.3299L21.1391 29.3342C21.1903 30.0143 21.0454 30.5329 20.7045 30.89C20.3636 31.247 19.8096 31.4256 19.0426 31.4256H16V34.3586H19.0426C20.5425 34.3586 21.2414 35.0643 21.1391 36.4755L20.8835 40.3522C20.8323 41.2874 20.9942 42.0866 21.3692 42.7497C21.7442 43.4298 22.2897 43.9569 23.0056 44.331Z" fill="white"/>
	<path fill-rule="evenodd" clip-rule="evenodd" d="M40.9944 43.4777C40.2615 43.8518 39.4177 44.0388 38.4632 44.0388H36.699V41.0803H38.003C38.5996 41.0803 39.0768 40.9272 39.4348 40.6212C39.7757 40.2981 39.9376 39.856 39.9206 39.2949L39.6649 35.3162C39.5967 34.449 39.8098 33.7264 40.3041 33.1483C40.7984 32.5532 41.4973 32.1791 42.4007 32.0261C41.4973 31.856 40.7984 31.4905 40.3041 30.9294C39.8098 30.3513 39.5967 29.6286 39.6649 28.7615L39.9206 24.7827C39.9547 24.1536 39.8013 23.6945 39.4604 23.4055C39.1024 23.1164 38.6166 22.9719 38.003 22.9719H36.699V20.0388H38.4632C39.9121 20.0388 41.0711 20.4384 41.9404 21.2375C42.8097 22.0197 43.2018 23.0994 43.1165 24.4767L42.8609 28.4809C42.8097 29.161 42.9546 29.6796 43.2955 30.0367C43.6364 30.3938 44.1904 30.5723 44.9574 30.5723H48V33.5053H44.9574C43.4575 33.5053 42.7586 34.211 42.8609 35.6222L43.1165 39.499C43.1677 40.4341 43.0058 41.2333 42.6308 41.8964C42.2558 42.5765 41.7103 43.1036 40.9944 43.4777ZM23.0056 43.478C23.7385 43.8521 24.5823 44.0391 25.5368 44.0391H27.301V41.0806H25.997C25.4004 41.0806 24.9232 40.9275 24.5652 40.6215C24.2243 40.2984 24.0624 39.8563 24.0794 39.2952L24.3351 35.3165C24.4033 34.4493 24.1902 33.7267 23.6959 33.1486C23.2016 32.5535 22.5027 32.1794 21.5993 32.0264C22.5027 31.8563 23.2016 31.4908 23.6959 30.9297C24.1902 30.3515 24.4033 29.6289 24.3351 28.7617L24.0794 24.783C24.0453 24.1539 24.1987 23.6948 24.5396 23.4057C24.8976 23.1167 25.3834 22.9722 25.997 22.9722H27.301V20.0391H25.5368C24.0879 20.0391 22.9289 20.4387 22.0596 21.2378C21.1903 22.02 20.7982 23.0997 20.8835 24.4769L21.1391 28.4812C21.1903 29.1613 21.0454 29.6799 20.7045 30.037C20.3636 30.3941 19.8096 30.5726 19.0426 30.5726H16V33.5056H19.0426C20.5425 33.5056 21.2414 34.2113 21.1391 35.6225L20.8835 39.4993C20.8323 40.4344 20.9942 41.2336 21.3692 41.8967C21.7442 42.5768 22.2897 43.1039 23.0056 43.478Z" fill="url(#paint1_linear)"/>
	<defs>
		<linearGradient id="paint0_linear" x1="32" y1="0" x2="32" y2="64" gradientUnits="userSpaceOnUse">
			<stop stop-color="#F1F3F6"/>
			<stop offset="1" stop-color="#D5D8DB"/>
		</linearGradient>
		<linearGradient id="paint1_linear" x1="32" y1="20.0388" x2="32" y2="44.0391" gradientUnits="userSpaceOnUse">
			<stop stop-color="#313234"/>
			<stop offset="1" stop-color="#424345"/>
		</linearGradient>
	</defs>
</svg>
