<svg width="64" height="64" viewBox="0 0 64 64" fill="none" xmlns="http://www.w3.org/2000/svg">
	<rect x="1.28" y="1.28" width="61.44" height="61.44" rx="13.0113" stroke="black" stroke-width="2.56"/>
	<path fill-rule="evenodd" clip-rule="evenodd" d="M40.9944 43.4777C40.2615 43.8518 39.4177 44.0388 38.4632 44.0388H36.699V41.0803H38.003C38.5996 41.0803 39.0768 40.9272 39.4348 40.6212C39.7757 40.2981 39.9376 39.856 39.9206 39.2949L39.6649 35.3162C39.5967 34.449 39.8098 33.7264 40.3041 33.1483C40.7984 32.5532 41.4973 32.1791 42.4007 32.0261C41.4973 31.856 40.7984 31.4905 40.3041 30.9294C39.8098 30.3513 39.5967 29.6286 39.6649 28.7615L39.9206 24.7827C39.9547 24.1536 39.8013 23.6945 39.4604 23.4055C39.1024 23.1164 38.6166 22.9719 38.003 22.9719H36.699V20.0388H38.4632C39.9121 20.0388 41.0711 20.4384 41.9404 21.2375C42.8097 22.0197 43.2018 23.0994 43.1165 24.4767L42.8609 28.4809C42.8097 29.161 42.9546 29.6796 43.2955 30.0367C43.6364 30.3938 44.1904 30.5723 44.9574 30.5723H48V33.5053H44.9574C43.4575 33.5053 42.7586 34.211 42.8609 35.6222L43.1165 39.499C43.1677 40.4341 43.0058 41.2333 42.6308 41.8964C42.2558 42.5765 41.7103 43.1036 40.9944 43.4777ZM23.0056 43.478C23.7385 43.8521 24.5823 44.0391 25.5368 44.0391H27.301V41.0806H25.997C25.4004 41.0806 24.9232 40.9275 24.5652 40.6215C24.2243 40.2984 24.0624 39.8563 24.0794 39.2952L24.3351 35.3165C24.4033 34.4493 24.1902 33.7267 23.6959 33.1486C23.2016 32.5535 22.5027 32.1794 21.5993 32.0264C22.5027 31.8563 23.2016 31.4908 23.6959 30.9297C24.1902 30.3515 24.4033 29.6289 24.3351 28.7617L24.0794 24.783C24.0453 24.1539 24.1987 23.6948 24.5396 23.4057C24.8976 23.1167 25.3834 22.9722 25.997 22.9722H27.301V20.0391H25.5368C24.0879 20.0391 22.9289 20.4387 22.0596 21.2378C21.1903 22.02 20.7982 23.0997 20.8835 24.4769L21.1391 28.4812C21.1903 29.1613 21.0454 29.6799 20.7045 30.037C20.3636 30.3941 19.8096 30.5726 19.0426 30.5726H16V33.5056H19.0426C20.5425 33.5056 21.2414 34.2113 21.1391 35.6225L20.8835 39.4993C20.8323 40.4344 20.9942 41.2336 21.3692 41.8967C21.7442 42.5768 22.2897 43.1039 23.0056 43.478Z" fill="black"/>
</svg>
